<svg xmlns="http://www.w3.org/2000/svg" width="17" height="20" viewBox="0 0 17 20">
    <g fill="#FFF" fill-rule="evenodd" stroke="#FFF" stroke-width=".2">
        <path fill-rule="nonzero" d="M8.405 10.72H8.52c1.069-.019 1.933-.403 2.572-1.14 1.404-1.62 1.17-4.4 1.145-4.665-.091-1.991-1.01-2.944-1.77-3.388-.564-.333-1.225-.512-1.961-.527h-.062c-.405 0-1.2.067-1.962.512-.766.444-1.7 1.397-1.791 3.403-.026.265-.26 3.044 1.145 4.666.635.736 1.499 1.12 2.568 1.139zm-2.74-5.712c0-.01.004-.022.004-.03.12-2.678 1.977-2.966 2.772-2.966h.044c.985.023 2.659.434 2.772 2.966 0 .012 0 .023.003.03.004.026.26 2.567-.9 3.904-.46.53-1.073.792-1.879.8h-.036c-.803-.008-1.419-.27-1.875-.8-1.156-1.33-.908-3.881-.904-3.904z"/>
        <path d="M15.999 15.292v-.011c0-.03-.004-.06-.004-.094-.022-.74-.07-2.468-1.654-3.02-.01-.005-.026-.008-.036-.012-1.647-.43-3.017-1.4-3.031-1.412a.486.486 0 0 0-.687.124.51.51 0 0 0 .12.702c.063.045 1.516 1.079 3.335 1.557.85.31.945 1.24.971 2.091 0 .034 0 .064.004.094.003.336-.019.855-.077 1.153-.592.344-2.91 1.531-6.438 1.531-3.513 0-5.847-1.19-6.442-1.534-.058-.3-.084-.818-.077-1.154 0-.03.004-.06.004-.094.026-.851.12-1.78.971-2.09 1.819-.479 3.272-1.517 3.334-1.558a.51.51 0 0 0 .121-.702.486.486 0 0 0-.687-.123c-.014.01-1.376.982-3.03 1.411a.452.452 0 0 0-.037.011c-1.585.557-1.632 2.286-1.654 3.022 0 .033 0 .063-.004.093v.011c-.004.194-.007 1.191.186 1.692.037.097.102.179.19.235C1.487 17.29 4.112 19 8.505 19c4.394 0 7.02-1.714 7.129-1.785a.497.497 0 0 0 .19-.235c.182-.497.179-1.494.175-1.688z"/>
    </g>
</svg>
