<svg xmlns="http://www.w3.org/2000/svg" width="16" height="13" viewBox="0 0 16 13">
    <g fill="#FFF" fill-rule="evenodd">
        <path fill-rule="nonzero" d="M14.026.026H1.954C.876.026 0 .96 0 2.11v8.793c0 1.149.876 2.082 1.954 2.082h12.07c1.077 0 1.953-.933 1.953-2.082v-8.79C15.98.964 15.104.026 14.027.026zm1.062 10.876c0 .624-.476 1.13-1.062 1.13H1.954c-.585 0-1.061-.506-1.061-1.13v-8.79c0-.624.476-1.13 1.06-1.13h12.07c.585 0 1.061.506 1.061 1.13v8.79h.004z"/>
        <path d="M10.076 6.396l3.907-3.734a.5.5 0 0 0 .034-.673.43.43 0 0 0-.632-.035L7.997 7.108l-1.052-1c-.003-.004-.006-.008-.006-.011a.675.675 0 0 0-.073-.067L2.588 1.95a.427.427 0 0 0-.631.039.497.497 0 0 0 .036.673l3.954 3.766-3.937 3.928a.5.5 0 0 0-.02.673c.09.099.208.151.327.151.11 0 .219-.042.304-.126l3.997-3.985 1.084 1.032a.429.429 0 0 0 .595-.004l1.115-1.063 3.973 4.023a.429.429 0 0 0 .632-.018.5.5 0 0 0-.017-.672l-3.924-3.97z"/>
    </g>
</svg>
