<svg xmlns="http://www.w3.org/2000/svg" width="16" height="16" viewBox="0 0 16 16">
    <g fill="#FFF" fill-rule="nonzero">
        <path d="M11.781 0H4.22A4.224 4.224 0 0 0 0 4.219v.937c0 .776.63 1.407 1.406 1.407h1.875c.776 0 1.406-.631 1.406-1.407V4.22a.47.47 0 0 1 .47-.469h5.687a.47.47 0 0 1 .469.469v.937c0 .776.63 1.407 1.406 1.407h1.875c.775 0 1.406-.631 1.406-1.407V4.22A4.224 4.224 0 0 0 11.781 0zM3.75 5.156a.47.47 0 0 1-.469.469H1.406a.47.47 0 0 1-.468-.469v-.468H3.75v.468zm7.094-2.343H5.156c-.61 0-1.132.391-1.325.937H.97A3.286 3.286 0 0 1 4.22.937h7.562c1.65 0 3.02 1.225 3.248 2.813h-2.86a1.408 1.408 0 0 0-1.325-.938zm4.219 2.343a.47.47 0 0 1-.47.469H12.72a.47.47 0 0 1-.469-.469v-.468h2.813v.468z"/>
        <path d="M14.884 13.132c-2.554-6.208-2.4-5.842-2.428-5.887a1.413 1.413 0 0 0-1.206-.683h-.875v-.468c0-.776-.63-1.407-1.406-1.407H7.03c-.775 0-1.406.631-1.406 1.407v.468H4.75c-.608 0-1.101.414-1.238.746l-2.395 5.823c-.12.286-.18.59-.18.9v.563c0 .775.631 1.406 1.407 1.406h11.312c.776 0 1.406-.63 1.406-1.406v-.563c0-.31-.06-.614-.178-.899zM6.562 6.094a.47.47 0 0 1 .47-.469h1.937a.47.47 0 0 1 .469.469v.468H6.562v-.468zm7.563 8.5a.47.47 0 0 1-.469.469H2.344a.47.47 0 0 1-.469-.47v-.562c0-.187.036-.368.108-.542l2.38-5.786A.471.471 0 0 1 4.75 7.5h6.5c.154 0 .3.077.387.203l2.38 5.788a1.4 1.4 0 0 1 .108.54v.563z"/>
        <path d="M8.031 8.438A2.816 2.816 0 0 0 5.22 11.25a2.816 2.816 0 0 0 2.812 2.813 2.816 2.816 0 0 0 2.813-2.813A2.816 2.816 0 0 0 8.03 8.437zm0 4.687a1.877 1.877 0 0 1-1.875-1.875c0-1.034.841-1.875 1.875-1.875s1.875.841 1.875 1.875a1.877 1.877 0 0 1-1.875 1.875z"/>
    </g>
</svg>
