<svg xmlns="http://www.w3.org/2000/svg" width="17" height="17" viewBox="0 0 17 17">
    <path fill="#FFF" fill-rule="nonzero" d="M.602 13.63h.704a2.267 2.267 0 0 0 .367 2.71c.426.426.998.66 1.615.66a2.29 2.29 0 0 0 1.614-.66c.426-.424.66-.996.66-1.612a2.2 2.2 0 0 0-.293-1.099H8.1a2.267 2.267 0 0 0 .367 2.712c.426.425.998.659 1.615.659a2.29 2.29 0 0 0 1.614-.66c.426-.424.66-.996.66-1.612a2.2 2.2 0 0 0-.293-1.099h.763a.595.595 0 0 0 .602-.6c0-.338-.264-.601-.602-.601H1.203v-1.173h13.21a.595.595 0 0 0 .572-.44l1.996-7.283a.587.587 0 0 0-.103-.513.613.613 0 0 0-.47-.235H1.203V.601C1.203.264.94 0 .602 0A.595.595 0 0 0 0 .6v12.414c0 .352.264.615.602.615zm8.703.336a1.067 1.067 0 0 1 1.526 0 1.064 1.064 0 0 1 0 1.525 1.1 1.1 0 0 1-1.526 0 1.07 1.07 0 0 1 0-1.525zm-6.78 0a1.067 1.067 0 0 1 1.526 0 1.064 1.064 0 0 1 0 1.525 1.1 1.1 0 0 1-1.527 0 1.07 1.07 0 0 1 0-1.525zM1.202 3.972h14.413l-1.673 6.096H1.203V3.972z"/>
</svg>
