<svg xmlns="http://www.w3.org/2000/svg" width="48" height="48"><g fill="none" fill-rule="evenodd"><circle cx="23" cy="25" r="17" fill="#FFF"/><path fill="#0A74F2" fill-rule="nonzero" d="M24.07 21.556a3.864 3.864 0 1 1 0-7.728 3.864 3.864 0 0 1 0 7.728zM24 0c13.254 0 24 10.745 24 24 0 13.254-10.746 24-24 24C10.744 48 0 37.254 0 24 0 10.745 10.745 0 24 0zm-.05 10.989c-4.044.064-7.334 3.406-7.334 7.45 0 4.61 4.59 9.272 6.914 11.337l.008.007c.166.148.322.284.462.404 2.1-1.795 7.384-6.802 7.384-11.747 0-4.045-3.29-7.388-7.334-7.451l-.05-.002-.05.002zm.154 26.171c4.427 0 8.908-1.27 8.908-3.695 0-1.738-2.298-2.882-5.228-3.392a35.357 35.357 0 0 1-1.54 1.463c3.21.327 5.108 1.332 5.108 1.928 0 .718-2.752 2.036-7.248 2.036s-7.247-1.318-7.247-2.036c0-.584 1.82-1.565 4.92-1.91a35.15 35.15 0 0 1-1.529-1.449c-2.845.525-5.051 1.657-5.051 3.36 0 2.426 4.481 3.695 8.907 3.695z"/></g></svg>